<?xml version="1.0" encoding="utf-8"?>
<!-- Generator: Adobe Illustrator 25.0.0, SVG Export Plug-In . SVG Version: 6.00 Build 0)  -->
<svg version="1.1" id="b19166cc-0fc2-4ad2-ab70-e750108f5605"
	 xmlns="http://www.w3.org/2000/svg" xmlns:xlink="http://www.w3.org/1999/xlink" x="0px" y="0px" viewBox="0 0 857 510.4"
	 style="enable-background:new 0 0 857 510.4;" xml:space="preserve">
<style type="text/css">
	.st0{fill:none;}
	.st1{fill:#E6E6E6;}
	.st2{fill:#3F3D56;}
	.st3{fill:#FFB8B8;}
	.st4{fill:#272727;}
	.st5{fill:#474747;}
	.st6{fill:#FFFFFF;}
	.st7{opacity:0.2;enable-background:new    ;}
	.st8{fill:#3F392D;}
	.st9{fill:#8E8E8E;}
</style>
<path class="st0" d="M414,505.1c3.1-3.9,7.2,3.9,11.3,1h-22.8C407.2,508.6,410.8,500.9,414,505.1z"/>
<path class="st0" d="M489,506.1H485c0.8,0.6,1.7,1.2,2.5,1.8C488,507.3,488.5,506.7,489,506.1z"/>
<path class="st1" d="M384.3,501.3c-6.4,0-12.7,1.6-18.3,4.7h36.5C397,503,390.7,501.3,384.3,501.3z"/>
<path class="st1" d="M455.2,496.6c-10.7,0-21.1,3.3-29.9,9.5H485C476.3,499.9,465.9,496.6,455.2,496.6z"/>
<path class="st1" d="M856.9,436.8c-2.7-48.4-41.6-87.9-89.9-91.2c-46-3.2-87.9,26.4-100.2,70.8c-1.2,0-2.3-0.1-3.5-0.1
	c-43,0-80.9,28.3-93,69.6c-28.5-12.5-61.9-4.2-81.3,20.2h302.3c37.1,0,67.2-30.8,65.7-67.9C856.9,437.7,856.9,437.2,856.9,436.8z"/>
<rect y="505.1" class="st2" width="849" height="2"/>
<path class="st3" d="M283.3,180.2c0,0-38.5-12-32.6,7.7s38.4,9.8,38.4,9.8L283.3,180.2z"/>
<path class="st4" d="M430.6,106.1c0,0-19.7-27-38.9,1c-19.2,28.1-37.1,51.1-37.1,51.1l-47.7,15.6l-27.6,2.5l7.6,24.6l80.3-11.7
	C367.2,189.2,456.6,136.1,430.6,106.1z"/>
<path class="st3" d="M342.5,255.6c0,0-30,21-28,40s15,71,15,71l27-4c0,0,3-40-7-55l48-27L342.5,255.6z"/>
<path class="st3" d="M409,305.1c0,0-2,37,3,52s10,71,10,71h28c0,0,13-49-3-71c0,0-5-29,9-43L409,305.1z"/>
<path class="st4" d="M402.5,202.6c0,0-65,41-65,54l52,43l18-20l-2,30l56,11c0,0,20-76,19-79s-4-47-4-47L402.5,202.6z"/>
<path class="st4" d="M356.5,357.6l-29,6l5.2,21.2c2.5,10.4,2.8,21.3,0.8,31.8l0,0c0,0,30,8,30,4s-7-20-5-31S356.5,357.6,356.5,357.6
	z"/>
<path class="st5" d="M371.5,432.6c-1-4-9.3-22.1-9.7-19.1s-16.3,8.1-22.3,2.1c0,0-8-7-11,0s-9,19-9,19s-27,13-23,20
	c0.8,1.4,3.1,2,6.1,2.1c-0.1,0.2-0.1,0.4-0.1,0.6v0.7c0,0.9,0.7,1.6,1.6,1.6h0.7c0.9,0,1.6-0.7,1.6-1.6v-0.7c0-0.3-0.1-0.5-0.2-0.7
	c0.8-0.1,1.7-0.2,2.5-0.3c-0.2,0.3-0.4,0.6-0.4,1v0.7c0,0.9,0.7,1.6,1.6,1.6h0.7c0.9,0,1.6-0.7,1.6-1.6v-0.7c0-0.6-0.3-1.1-0.9-1.4
	c2.3-0.4,4.7-0.9,7.1-1.4c-0.2,0.3-0.2,0.5-0.2,0.8v0.7c0,0.9,0.7,1.6,1.6,1.6h0.7c0.9,0,1.6-0.7,1.6-1.6v-0.7c0-0.6-0.4-1.2-1-1.5
	c1.8-0.4,3.5-0.9,5.2-1.3c-0.2,0.3-0.2,0.5-0.2,0.8v0.7c0,0.9,0.7,1.6,1.6,1.6h0.7c0.9,0,1.6-0.7,1.6-1.6v-0.7
	c0-0.7-0.5-1.4-1.2-1.6c5.9-1.7,10.2-3.1,10.2-3.1s5-1.8,11-4.3v0.6c0,0.9,0.7,1.6,1.6,1.6h0.7c0.9,0,1.6-0.7,1.6-1.6v-0.7
	c0-0.5-0.2-1-0.6-1.3c1.2-0.5,2.4-1,3.6-1.6v0.6c0,0.9,0.7,1.6,1.6,1.6h0.7c0.9,0,1.6-0.7,1.6-1.6v-0.7c0-0.5-0.3-1-0.7-1.3
	c1.3-0.6,2.6-1.2,3.7-1.8c0,0.1,0,0.1,0,0.2v0.7c0,0.9,0.7,1.6,1.6,1.6h0.7c0.9,0,1.6-0.7,1.6-1.6v-0.7c0-0.8-0.6-1.5-1.3-1.6
	C370,435,371.7,433.5,371.5,432.6z"/>
<path class="st4" d="M452,423.6l-31.7-2c0,0,1.9,33-1.9,44s-1.9,15-1.9,15l27.8,2L452,423.6z"/>
<path class="st5" d="M452.4,496.5c-0.1-4.1-4.5-23.6-5.5-20.7s-17.7,4.5-22.3-2.6c0,0-6.4-8.5-10.8-2.3s-12.8,16.7-12.8,16.7
	s-29.1,7.1-26.7,14.8c0.5,1.6,2.6,2.6,5.5,3.3c-0.1,0.2-0.2,0.4-0.2,0.5l-0.1,0.7c-0.2,0.9,0.4,1.8,1.3,2l0.7,0.1
	c0.9,0.2,1.8-0.4,2-1.3l0.1-0.7c0.1-0.2,0-0.5,0-0.8c0.8,0.1,1.7,0.2,2.5,0.3c-0.3,0.2-0.5,0.6-0.6,0.9l-0.1,0.7
	c-0.2,0.9,0.4,1.8,1.3,2l0.7,0.1c0.9,0.2,1.8-0.4,2-1.3l0.1-0.7c0.1-0.6-0.1-1.2-0.5-1.6c2.3,0.1,4.8,0.1,7.2,0.1
	c-0.2,0.2-0.3,0.5-0.4,0.8l-0.1,0.7c-0.2,0.9,0.4,1.8,1.3,2l0.7,0.1c0.9,0.2,1.8-0.4,2-1.3l0.1-0.7c0.1-0.6-0.1-1.3-0.6-1.7
	c1.8-0.1,3.7-0.1,5.4-0.2c-0.2,0.2-0.3,0.5-0.4,0.8l-0.1,0.7c-0.2,0.9,0.4,1.8,1.3,2l0.7,0.1c0.9,0.2,1.8-0.4,2-1.3l0.1-0.7
	c0.1-0.7-0.2-1.4-0.8-1.8c6.1-0.4,10.6-0.9,10.6-0.9s5.2-0.7,11.6-1.9l-0.1,0.6c-0.2,0.9,0.4,1.8,1.3,2l0.7,0.1
	c0.9,0.2,1.8-0.4,2-1.3l0.1-0.7c0.1-0.5,0-1-0.4-1.4c1.3-0.2,2.6-0.5,3.9-0.8l-0.1,0.6c-0.2,0.9,0.4,1.8,1.3,2l0.7,0.1
	c0.9,0.2,1.8-0.4,2-1.3l0.1-0.7c0.1-0.5,0-1.1-0.4-1.5c1.4-0.3,2.8-0.7,4-1c0,0.1,0,0.1,0,0.2l-0.1,0.7c-0.2,0.9,0.4,1.8,1.3,2
	l0.7,0.1c0.9,0.2,1.8-0.4,2-1.3l0.1-0.7c0.2-0.8-0.2-1.5-1-1.9C450.4,498.5,452.4,497.5,452.4,496.5z"/>
<circle class="st3" cx="402.5" cy="43.6" r="29"/>
<path class="st3" d="M428.5,40.6c0,0,16,20,24,19l-35,27c0,0-4-17-9-19S428.5,40.6,428.5,40.6z"/>
<path class="st4" d="M491,189.1c0,0,0-110.3-18.5-119.9c-18.5-9.5-30.7-14.9-30.7-14.9l0,0c-0.6,7.3-4.2,14.1-10,18.6
	c-6.1,4.7-12.2,8.7-15.7,8.7l-0.1-0.5l-0.4-1.2l-10.1,15.7c0,0-9,2-12,8c-1.6,3.2,6,35.9,1.5,65.5c-3.8,25.1-20,47.7-20.5,50.5
	c-0.8,4.7,18.9-7.5,27.8-13.2c0.1,0.1,0.2,0.2,0.2,0.2s-5,2,5-1c5.7-1.7,13.6-1.8,19.4-1.6c0,1.7,0,3.1,0.1,4.1c1,10,51,24,58,21
	S491,189.1,491,189.1z"/>
<path class="st3" d="M456,227.1c0,0-30,27-10,32s28-28,28-28L456,227.1z"/>
<path class="st6" d="M421,297.1c0,0,14-13,22-6s13,12,13,12S433,289.1,421,297.1z"/>
<path class="st6" d="M424.6,452.6c0,0,7.9-7.3,12.4-3.4s7.3,6.8,7.3,6.8S431.4,448.1,424.6,452.6z"/>
<path class="st6" d="M336.2,384.5c0,0,5.4-9.3,10.9-6.8s9,4.3,9,4.3S341.4,378.2,336.2,384.5z"/>
<path class="st4" d="M483.4,82.9c-9.9-19.9-40.1-9.1-35.2,12.7c0.1,0.3,0.1,0.7,0.2,1c5.2,20.6,13.6,40.1,25,58l-11,49l-12,25l25,6
	l31-75C506.5,159.6,497.9,112.1,483.4,82.9z"/>
<polygon class="st7" points="469,156.1 450,228.1 466,194.1 "/>
<path class="st8" d="M420.7,9.8c0,0-16-16.9-32.2-6.2s-23.8,21-22.2,28.1s6.3,17.2,6.3,17.2s-2.9-14.9,10.5-16s31.8-9.9,31.8-9.9
	l12.5,26.7c0,0,1.8-6.2,6.7-4.4S435.1,11.7,420.7,9.8z"/>
<path class="st9" d="M318,391.1c0,2.5-0.2,5.1-0.6,7.6v0c-4.2,24.5-27.4,41-51.9,36.8c-3.5-0.6-7-1.6-10.3-3.1h0
	c-1.9-0.8-3.6-1.7-5.4-2.8c-10.8-6.5-18.4-17.3-20.9-29.7c-0.6-2.9-0.9-5.9-0.9-8.9c0-1.4,0.1-2.7,0.2-4v0
	c2.2-24.8,24.1-43,48.9-40.8c23,2.1,40.6,21.2,40.9,44.2v0C318,390.7,318,390.9,318,391.1z"/>
<path class="st6" d="M284.1,376h-20.2l-10.1-17.5l6.8-11.8l0.4-0.1c8.7-2.3,17.8-2.1,26.3,0.7l0.4,0.1l6.4,11.1L284.1,376z
	 M265.1,374h17.8l8.9-15.5l-5.4-9.4c-7.9-2.5-16.4-2.7-24.4-0.7l-5.8,10.1L265.1,374z"/>
<path class="st6" d="M283.1,412h-20.2l-10.1-17.5l10.1-17.5h20.2l10.1,17.5L283.1,412z M264.1,410h17.8l8.9-15.5l-8.9-15.5h-17.8
	l-8.9,15.5L264.1,410z"/>
<path class="st6" d="M273,437.1c-6.3,0-12.5-1.3-18.3-3.8l-1-0.4l10.2-17.7h20.2l9.8,17l-1,0.5C286.7,435.5,279.9,437.1,273,437.1z
	 M256.6,431.9c11.1,4.5,23.6,4.2,34.5-0.7l-8.1-14.1h-17.8L256.6,431.9z"/>
<path class="st6" d="M317.1,394h-20.2l-10.1-17.5l10.1-17.5h9.2l0.3,0.3c8,8.4,12.5,19.4,12.6,31v0.3L317.1,394z M298.1,392h17.8
	l1.1-1.8c-0.2-10.8-4.4-21.2-11.7-29.1h-7.2l-8.9,15.5L298.1,392z"/>
<path class="st6" d="M296.6,430.5l-9.8-17l10.1-17.5h20.2l1.3,2.2l0,0.4c-2.2,12.9-9.8,24.2-20.8,31.2L296.6,430.5z M289.2,413.6
	l8.2,14.1c10-6.6,16.9-17.1,19-28.9l-0.4-0.7h-17.8L289.2,413.6z"/>
<path class="st6" d="M250.1,431l-0.9-0.5c-11-6.7-18.8-17.7-21.3-30.3l-0.1-0.4l2.1-3.6h20.2l10.1,17.5L250.1,431z M229.9,400.1
	c2.5,11.6,9.5,21.7,19.5,28.1l8.4-14.6l-8.9-15.5h-17.8L229.9,400.1z"/>
<path class="st6" d="M250.1,392h-20.2l-2.7-4.7V387c1-11.3,6.2-21.9,14.5-29.6l0.3-0.3h8.1l10.1,17.5L250.1,392z M231.1,390h17.8
	l8.9-15.5l-8.9-15.5h-6.2c-7.7,7.3-12.5,17.1-13.5,27.7L231.1,390z"/>
<path class="st6" d="M328.8,435.6c0,0,7.9-7.3,12.4-3.4s7.3,6.8,7.3,6.8S335.6,431.1,328.8,435.6z"/>
<path class="st6" d="M410.7,493.5c0,0,9.8-10.6,15.5-4.9c5.6,5.7,9.1,9.7,9.1,9.7S419.2,487,410.7,493.5z"/>
</svg>
