<?xml version="1.0" encoding="utf-8"?>
<!-- Generator: Adobe Illustrator 25.0.0, SVG Export Plug-In . SVG Version: 6.00 Build 0)  -->
<svg version="1.1" id="_x36_6446756-e833-4ae8-8372-cb86dc229da9"
	 xmlns="http://www.w3.org/2000/svg" xmlns:xlink="http://www.w3.org/1999/xlink" x="0px" y="0px" viewBox="0 0 1144.4 798.9"
	 style="enable-background:new 0 0 1144.4 798.9;" xml:space="preserve">
<style type="text/css">
	.st0{fill:#8E8E8E;}
	.st1{opacity:0.2;enable-background:new    ;}
	.st2{fill:none;stroke:#E0E0E0;stroke-miterlimit:10;}
	.st3{fill:none;stroke:#E0E0E0;stroke-width:3;stroke-miterlimit:10;}
	.st4{fill:none;stroke:#535461;stroke-width:2;stroke-miterlimit:10;}
	.st5{fill:#E0E0E0;}
	.st6{opacity:0.5;fill:#FFFFFF;enable-background:new    ;}
	.st7{opacity:0.1;}
	.st8{fill:url(#SVGID_1_);}
	.st9{fill:url(#SVGID_2_);}
	.st10{fill:#F7BBC3;}
	.st11{opacity:0.1;enable-background:new    ;}
	.st12{fill:#272727;}
	.st13{fill:#474747;}
	.st14{fill:#D39999;}
	.st15{fill:#74585E;}
	.st16{fill:url(#SVGID_3_);}
	.st17{fill:none;stroke:#535461;stroke-miterlimit:10;}
	.st18{fill:url(#SVGID_4_);}
	.st19{fill:url(#SVGID_5_);}
</style>
<path class="st0" d="M0.4,69.2c3.7,31.6,29.8,56.6,36,87.9c0.8,4.1,1.3,8.2,1.4,12.4c0.9,17.9-2.7,36.2-0.8,54.2
	c3.4,33.7,23.9,60,49.9,82.8c19.7,17.2,42.5,32.4,63.5,47c53.4,37.3,103.6,84.5,125.5,145.8c14.6,40.9,15.8,85.4,26.5,127.5
	s35.2,85.2,76.5,98.7c44.4,14.4,93.3-9.6,138.9-0.1c49,10.2,83.8,56.5,132.1,69.6c61.4,16.6,122.7-24.2,185.7-32.7
	c30.3-4.1,61.1-0.6,91.5-3.2c33.9-2.9,66.7-13.4,96.1-30.5c10-5.9,20.1-13.1,24.8-23.7c4-9.2,3.4-19.7,2.2-29.7
	c-4.6-37-16.2-77.2,2.1-109.7c16.9-30,57.8-51.5,51.8-85.3c-3.7-20.4-23.7-33.1-42.3-42.2c-38.3-18.8-79.1-33.6-113.4-59
	c-24.5-18.2-45.6-43.6-54.6-72.2c-3.7-11.4-5.2-23.5-4.5-35.4c1.3-18.9,7.8-40.1-3.6-55.3c-4.9-6.6-12.5-10.6-20.1-13.7
	c-28.7-11.6-60.6-12.3-90.4-20.5c-10.2-2.8-20.1-6.9-29.3-12.2c-18.2-10.5-32.8-26.1-36.4-46.3c-2.1-11.9-0.2-24.9-6.2-35.4
	c-10-17.8-29.8-25.2-51.8-27.7c-27.3-3-58.3,1.7-79,4l-2.1,0.2c-26.6,2.8-53-3.1-78.9-12c-28-9.5-55.4-22.4-82-31.7
	c-2.5-0.9-5-1.7-7.5-2.5C382.5,12,362.6,7.4,342.4,4.3c-28.5-4.3-57.3-5.4-86-3.3c-14.6,1-29,2.9-43.4,5.6
	c-4.2,0.8-8.4,1.7-12.6,2.6c-24.4,5.2-48.7,11.6-73.6,12c-1.8,0-3.6,0-5.4,0c-29.7-0.5-60.1-8.1-88.3,1.1C20.3,26.5,8,34.6,2.9,47.1
	C0,54-0.5,61.8,0.4,69.2z"/>
<path class="st1" d="M37.8,169.4h25.7c0.8-13.6,9.6-25.4,22.3-30c-11.6-6.4-15.8-21-9.4-32.6c6.4-11.6,21-15.8,32.6-9.4
	c11.6,6.4,15.8,21,9.4,32.6c-2.2,4-5.5,7.3-9.4,9.4c12.8,4.6,21.6,16.4,22.3,30h0.2c1.2-13.2,9.8-24.5,22.3-29
	c-11.6-6.4-15.8-21-9.5-32.6c6.4-11.6,21-15.8,32.6-9.5c6.3,3.5,10.7,9.6,12,16.6c2.9-2.4,6.3-4.3,9.8-5.6
	c-11.6-6.4-15.8-21-9.4-32.6c6.4-11.6,21-15.8,32.6-9.4c11.6,6.4,15.8,21,9.4,32.6c-2.2,4-5.5,7.3-9.4,9.4
	c13.5,4.9,22.4,17.7,22.4,32v28h11v-22c0-14.3,9-27.1,22.4-32c-11.6-6.4-15.8-21-9.4-32.6c6.4-11.6,21-15.8,32.6-9.4
	c11.6,6.4,15.8,21,9.4,32.6c-2.2,4-5.5,7.3-9.4,9.4c8.8,3.2,15.9,9.9,19.6,18.4c4-5.7,9.7-10.1,16.3-12.4
	c-11.6-6.4-15.8-21-9.4-32.6c6.4-11.6,21-15.8,32.6-9.4c11.6,6.4,15.8,21,9.4,32.6c-2.2,4-5.5,7.3-9.4,9.4
	c7.2,2.6,13.4,7.7,17.4,14.2v-4.2c0-14.3,9-27.1,22.4-32c-11.6-6.4-15.8-21-9.4-32.6c6.4-11.6,21-15.8,32.6-9.4s15.8,21,9.4,32.6
	c-2.2,4-5.5,7.3-9.4,9.4c13.5,4.9,22.4,17.7,22.4,32v38h12c3.8-8.4,10.8-14.9,19.4-18c-11.6-6.4-15.8-21-9.4-32.6s21-15.8,32.6-9.4
	c11.6,6.4,15.8,21,9.4,32.6c-2.2,4-5.5,7.3-9.4,9.4c2.4,0.9,4.6,2,6.8,3.4c1.7-12.5,10.2-23.1,22.1-27.4c-11.6-6.4-15.8-21-9.4-32.6
	s21-15.8,32.6-9.4c11.6,6.4,15.8,21,9.4,32.6c-2.2,4-5.5,7.3-9.4,9.4c10.2,3.7,18,12,21,22.4c3.8-4.2,8.5-7.5,13.8-9.4
	c-11.6-6.4-15.8-21-9.4-32.6s21-15.8,32.6-9.4c11.6,6.4,15.8,21,9.4,32.6c-2.2,4-5.5,7.3-9.4,9.4c3.7,1.3,7.1,3.3,10.1,5.8
	c3.7-8.8,10.9-15.6,19.8-18.8c-11.6-6.4-15.8-21-9.4-32.6s21-15.8,32.6-9.4c11.6,6.4,15.8,21,9.4,32.6c-2.2,4-5.5,7.3-9.4,9.4
	c13.5,4.9,22.4,17.7,22.4,32v10h60.4c9.2,5.3,19,9.4,29.2,12.1c29.8,8.2,61.7,8.9,90.4,20.5c7.6,3.1,15.2,7.1,20.1,13.7
	c11.4,15.1,4.9,36.4,3.6,55.3c-0.7,12,0.8,24,4.5,35.4H86.9c-26-22.8-46.5-49.1-49.9-82.8C35.2,205.7,38.7,187.4,37.8,169.4z"/>
<polyline class="st2" points="993.9,77 993.9,465 973.9,452 973.9,77 961.9,77 956.9,439 937.9,425 950.9,72 "/>
<line class="st2" x1="1018.9" y1="105" x2="937.9" y2="109.5"/>
<line class="st2" x1="1013.9" y1="125" x2="937.9" y2="128"/>
<line class="st2" x1="1013.9" y1="149" x2="937.9" y2="151"/>
<line class="st2" x1="1013.9" y1="171" x2="937.9" y2="174"/>
<line class="st2" x1="1013.9" y1="196" x2="934.9" y2="196"/>
<line class="st2" x1="1013.9" y1="221" x2="932.9" y2="218"/>
<line class="st2" x1="1013.9" y1="244" x2="932.9" y2="240"/>
<line class="st2" x1="1013.9" y1="269" x2="932.9" y2="263"/>
<line class="st2" x1="1015.9" y1="291" x2="929.9" y2="283"/>
<line class="st2" x1="1015.9" y1="316" x2="929.9" y2="303"/>
<line class="st2" x1="1015.9" y1="345" x2="926.9" y2="329"/>
<line class="st2" x1="1015.9" y1="378" x2="926.9" y2="352"/>
<line class="st2" x1="1017.9" y1="412" x2="923.9" y2="375"/>
<line class="st2" x1="1017.9" y1="443" x2="923.9" y2="397"/>
<polyline class="st2" points="915.9,76 899.9,417 878.9,417 891.9,76 868.9,76 853.9,417 830.9,417 843.9,76 815.9,76 805.9,417 
	780.9,417 791.9,79 765.9,79 759.9,417 736.9,417 743.9,76 720.9,76 715.9,417 693.9,417 698.9,76 672.9,76 672.9,417 646.9,417 
	646.9,76 622.9,76 626.9,417 605.9,417 599.9,76 575.9,76 583.9,417 562.9,417 552.9,76 531.9,76 539.9,417 520.9,417 505.9,76 
	485.9,76 501.9,417 481.9,417 459.9,76 435.9,76 463.9,417 444.9,417 417.9,76 398.9,76 426.9,417 405.9,417 378.9,72 359.9,72 
	390.9,417 370.9,417 338.9,72 "/>
<polyline class="st2" points="293.9,77 323.9,423 308.9,435 285.9,77 269.9,77 285.9,448 262.9,463 253.9,72 "/>
<line class="st2" x1="231.9" y1="116" x2="323.9" y2="116"/>
<line class="st2" x1="231.9" y1="141" x2="323.9" y2="141"/>
<line class="st2" x1="231.9" y1="169" x2="323.9" y2="166"/>
<line class="st2" x1="231.9" y1="193" x2="327.9" y2="188"/>
<line class="st2" x1="231.9" y1="220" x2="327.9" y2="216"/>
<line class="st2" x1="231.9" y1="249" x2="331.9" y2="244"/>
<line class="st2" x1="231.9" y1="277" x2="331.9" y2="267"/>
<line class="st2" x1="231.9" y1="309" x2="331.9" y2="285"/>
<line class="st2" x1="231.9" y1="337" x2="335.9" y2="302"/>
<line class="st2" x1="231.9" y1="366" x2="335.9" y2="326"/>
<line class="st2" x1="228.9" y1="394" x2="332.4" y2="350.5"/>
<line class="st2" x1="228.9" y1="426" x2="335.9" y2="372"/>
<line class="st2" x1="228.9" y1="455" x2="338.9" y2="394"/>
<line class="st2" x1="937.9" y1="105" x2="323.9" y2="110"/>
<line class="st2" x1="937.4" y1="123" x2="323.4" y2="128"/>
<line class="st2" x1="936.9" y1="141" x2="322.9" y2="146"/>
<line class="st2" x1="936.4" y1="159" x2="322.4" y2="164"/>
<line class="st2" x1="935.9" y1="177" x2="321.9" y2="182"/>
<line class="st2" x1="935.4" y1="195" x2="329.4" y2="200"/>
<line class="st2" x1="934.9" y1="213" x2="328.9" y2="218"/>
<line class="st2" x1="934.4" y1="231" x2="328.4" y2="236"/>
<line class="st2" x1="933.9" y1="249" x2="327.9" y2="254"/>
<line class="st2" x1="933.4" y1="267" x2="333.4" y2="272"/>
<line class="st2" x1="932.9" y1="285" x2="332.9" y2="290"/>
<line class="st2" x1="932.4" y1="303" x2="332.4" y2="308"/>
<line class="st2" x1="931.9" y1="321" x2="335.9" y2="326"/>
<line class="st2" x1="931.4" y1="339" x2="335.4" y2="344"/>
<line class="st2" x1="930.9" y1="357" x2="337.9" y2="362"/>
<line class="st2" x1="930.4" y1="375" x2="337.4" y2="380"/>
<line class="st2" x1="929.9" y1="393" x2="336.9" y2="398"/>
<polyline class="st3" points="1017.9,482 926.9,417 335.9,417 231.9,482 "/>
<path class="st4" d="M1023.5,411.6c0,0,2.3-68.3,39.2-106.8c15.6-16.1,25.6-36.8,28.4-59c1.3-10.6,1.6-21.2,0.9-31.8"/>
<path class="st0" d="M1115.1,189.6c-2.5,7.6-23.7,25.1-23.7,25.1s-6.5-26.7-3.9-34.3c2.6-7.6,10.9-11.6,18.5-9
	C1113.5,174,1117.5,182.1,1115.1,189.6L1115.1,189.6z"/>
<path class="st0" d="M1124,239.4c-6.3,5-33.5,8.2-33.5,8.2s9.1-25.9,15.3-30.9c6.2-5.2,15.3-4.3,20.5,1.8c5.2,6.2,4.3,15.3-1.8,20.5
	C1124.3,239.1,1124.1,239.2,1124,239.4L1124,239.4z"/>
<path class="st0" d="M1099,311.2c-7.9,1.2-33.1-9.8-33.1-9.8s20.9-17.8,28.8-19c8-1,15.2,4.7,16.2,12.6
	C1112,302.7,1106.7,309.8,1099,311.2L1099,311.2z"/>
<path class="st0" d="M1067.9,361.2c-7.6,2.5-34.3-4.1-34.3-4.1s17.6-21.1,25.2-23.6c7.6-2.6,15.9,1.3,18.5,8.9
	c2.6,7.6-1.3,15.9-8.9,18.5C1068.3,361.1,1068.1,361.2,1067.9,361.2L1067.9,361.2z"/>
<path class="st0" d="M1061,239.4c3.7,7.1,27.3,21.1,27.3,21.1s2.2-27.4-1.6-34.5c-3.7-7.1-12.5-9.9-19.6-6.2
	C1060,223.5,1057.3,232.3,1061,239.4L1061,239.4z"/>
<path class="st0" d="M1025.4,298.5c5.7,5.7,32.4,11.9,32.4,11.9s-6.1-26.8-11.8-32.4c-5.8-5.6-15-5.5-20.6,0.3
	C1019.9,283.9,1019.9,292.9,1025.4,298.5z"/>
<path class="st0" d="M998.6,360.6c4.6,6.6,29.9,17.2,29.9,17.2s-1.5-27.4-6.1-34c-4.6-6.6-13.6-8.3-20.2-3.7
	c-6.6,4.6-8.3,13.6-3.7,20.2C998.5,360.5,998.6,360.5,998.6,360.6L998.6,360.6z"/>
<path class="st4" d="M1038.5,472.6c0,0,2.3-68.3,39.2-106.8c15.6-16.1,25.6-36.8,28.4-59c1.3-10.6,1.6-21.2,0.9-31.8"/>
<path class="st0" d="M1130.1,250.6c-2.5,7.6-23.7,25.1-23.7,25.1s-6.5-26.7-3.9-34.3c2.6-7.6,10.9-11.6,18.5-9
	C1128.5,235,1132.5,243.1,1130.1,250.6L1130.1,250.6z"/>
<path class="st0" d="M1139,300.4c-6.3,5-33.5,8.2-33.5,8.2s9.1-25.9,15.3-30.9c6.2-5.2,15.3-4.3,20.5,1.8c5.2,6.2,4.3,15.3-1.8,20.5
	C1139.3,300.1,1139.1,300.2,1139,300.4L1139,300.4z"/>
<path class="st0" d="M1114,372.2c-7.9,1.2-33.1-9.8-33.1-9.8s20.9-17.8,28.8-19c8-1,15.2,4.7,16.2,12.6
	C1127,363.7,1121.7,370.8,1114,372.2L1114,372.2z"/>
<path class="st0" d="M1082.9,422.2c-7.6,2.5-34.3-4.1-34.3-4.1s17.6-21.1,25.2-23.6c7.6-2.6,15.9,1.3,18.5,8.9
	c2.6,7.6-1.3,15.9-8.9,18.5C1083.3,422.1,1083.1,422.2,1082.9,422.2L1082.9,422.2z"/>
<path class="st0" d="M1076,300.5c3.7,7.1,27.3,21.1,27.3,21.1s2.2-27.4-1.6-34.5c-3.7-7.1-12.5-9.9-19.6-6.2
	C1075,284.5,1072.3,293.3,1076,300.5L1076,300.5z"/>
<path class="st0" d="M1040.4,359.5c5.7,5.7,32.4,11.9,32.4,11.9s-6.1-26.8-11.8-32.4c-5.8-5.6-15-5.5-20.6,0.3
	C1034.9,344.9,1034.9,353.9,1040.4,359.5z"/>
<path class="st0" d="M1013.6,421.6c4.6,6.6,29.9,17.2,29.9,17.2s-1.5-27.4-6.2-34c-4.6-6.6-13.6-8.3-20.2-3.7
	c-6.6,4.6-8.3,13.6-3.7,20.2C1013.5,421.5,1013.6,421.5,1013.6,421.6L1013.6,421.6z"/>
<path class="st5" d="M217.4,107.8c0.5-19.4,13.9-36.4,32.8-40.5l0.5-0.1c0.8-0.2,1.5-0.2,2.3-0.2h748.4c11.2-0.1,21.7,5.7,27.6,15.3
	l0.2,0.3c1.1,1.9,1.7,4.1,1.7,6.3l6.9,393h-24l-8-384c0,0,0-11-10-12c-1.5-0.1-20.1-0.3-50.4-0.3L927.9,418h-10l19.5-332.4
	c-133.3-0.3-459.6,0.1-611,0.2L345.9,416h-10L318.4,85.9l-57.6,0.1c-8.6,0-16.6,4.6-20.9,12l-8,384h-24L217.4,107.8z"/>
<path class="st4" d="M207.8,490c0,0-3.2-52.9,22.4-85.3c10.9-13.6,17-30.3,17.6-47.6c0.2-8.2-0.4-16.5-1.7-24.6"/>
<path class="st0" d="M262.2,311.9c-1.4,6.1-16.4,21.1-16.4,21.1s-7-20.1-5.6-26.2c1.4-6.1,7.4-9.9,13.5-8.5
	C259.7,299.8,263.6,305.8,262.2,311.9L262.2,311.9L262.2,311.9z"/>
<path class="st0" d="M272.6,349.7c-4.5,4.3-25.3,8.8-25.3,8.8s5.1-20.7,9.6-25c4.5-4.3,11.6-4.2,15.9,0.2S277.1,345.4,272.6,349.7
	L272.6,349.7L272.6,349.7z"/>
<path class="st0" d="M258.7,407c-6,1.5-26.3-5.1-26.3-5.1s14.8-15.3,20.9-16.8c6-1.5,12.2,2.2,13.6,8.2
	C268.4,399.3,264.7,405.5,258.7,407L258.7,407z"/>
<path class="st0" d="M238.3,447.9c-5.7,2.5-26.8-0.6-26.8-0.6s12-17.6,17.7-20c5.7-2.6,12.3-0.1,15,5.5s0.1,12.3-5.5,15
	C238.6,447.8,238.5,447.9,238.3,447.9L238.3,447.9z"/>
<path class="st0" d="M224,354.5c3.4,5.2,22.7,14.2,22.7,14.2s-0.4-21.3-3.7-26.5c-3.4-5.2-10.4-6.7-15.6-3.3
	C222.1,342.2,220.6,349.2,224,354.5z"/>
<path class="st0" d="M200.8,402.6c4.8,4,25.9,6.8,25.9,6.8s-6.7-20.2-11.5-24.2c-4.8-4-11.9-3.3-15.9,1.5
	C195.4,391.5,196.1,398.6,200.8,402.6L200.8,402.6z"/>
<path class="st0" d="M184.8,452.5c4.1,4.7,24.4,11.1,24.4,11.1s-3.2-21-7.2-25.8c-4.1-4.7-11.2-5.3-15.9-1.2
	S180.7,447.8,184.8,452.5L184.8,452.5z"/>
<path class="st6" d="M262.2,311.9c-1.4,6.1-16.4,21.1-16.4,21.1s-7-20.1-5.6-26.2c1.4-6.1,7.4-9.9,13.5-8.5
	C259.7,299.8,263.6,305.8,262.2,311.9L262.2,311.9L262.2,311.9z"/>
<path class="st6" d="M272.6,349.7c-4.5,4.3-25.3,8.8-25.3,8.8s5.1-20.7,9.6-25c4.5-4.3,11.6-4.2,15.9,0.2S277.1,345.4,272.6,349.7
	L272.6,349.7L272.6,349.7z"/>
<path class="st6" d="M258.7,407c-6,1.5-26.3-5.1-26.3-5.1s14.8-15.3,20.9-16.8c6-1.5,12.2,2.2,13.6,8.2
	C268.4,399.3,264.7,405.5,258.7,407L258.7,407z"/>
<path class="st6" d="M238.3,447.9c-5.7,2.5-26.8-0.6-26.8-0.6s12-17.6,17.7-20c5.7-2.6,12.3-0.1,15,5.5s0.1,12.3-5.5,15
	C238.6,447.8,238.5,447.9,238.3,447.9L238.3,447.9z"/>
<path class="st6" d="M224,354.5c3.4,5.2,22.7,14.2,22.7,14.2s-0.4-21.3-3.7-26.5c-3.4-5.2-10.4-6.7-15.6-3.3
	C222.1,342.2,220.6,349.2,224,354.5z"/>
<path class="st6" d="M200.8,402.6c4.8,4,25.9,6.8,25.9,6.8s-6.7-20.2-11.5-24.2c-4.8-4-11.9-3.3-15.9,1.5
	C195.4,391.5,196.1,398.6,200.8,402.6L200.8,402.6z"/>
<path class="st6" d="M184.8,452.5c4.1,4.7,24.4,11.1,24.4,11.1s-3.2-21-7.2-25.8c-4.1-4.7-11.2-5.3-15.9-1.2
	S180.7,447.8,184.8,452.5L184.8,452.5z"/>
<g class="st7">
	
		<linearGradient id="SVGID_1_" gradientUnits="userSpaceOnUse" x1="1306.09" y1="460.65" x2="1306.09" y2="460.9" gradientTransform="matrix(-1 0 0 -1 1688.2 747.45)">
		<stop  offset="0" style="stop-color:#808080;stop-opacity:0.25"/>
		<stop  offset="0.54" style="stop-color:#808080;stop-opacity:0.12"/>
		<stop  offset="1" style="stop-color:#808080;stop-opacity:0.1"/>
	</linearGradient>
	<path class="st8" d="M382.2,286.8c-0.1-0.1-0.2-0.2-0.2-0.2L382.2,286.8z"/>
</g>
<linearGradient id="SVGID_2_" gradientUnits="userSpaceOnUse" x1="1043.78" y1="122.4803" x2="1043.78" y2="513.9658" gradientTransform="matrix(-1 0 0 -1 1688.2 747.45)">
	<stop  offset="0" style="stop-color:#808080;stop-opacity:0.25"/>
	<stop  offset="0.54" style="stop-color:#808080;stop-opacity:0.12"/>
	<stop  offset="1" style="stop-color:#808080;stop-opacity:0.1"/>
</linearGradient>
<path class="st9" d="M547.5,300.5c-0.2,6.4,3.8,8.8,3.8,8.8l36.9,32.7c14.2,5.2,16,32.2,16,32.2c1.4,2.5,2,6.8,2,12
	c-0.2,16-4.7,38.3-4.7,38.3l0.1,0.2l-0.1,0.6l0.1,0.2l-0.1,0.6c0.7,1.1,1.5,2.2,2.3,3.3c-4,8.2-11.5,21.4-14.7,24.2
	c-4.5,3.9-13.3,32.7-13.3,32.7l0.3-0.1l-0.3,0.9h0.2c-2.2,4.2-4.4,9.5-4.8,14.9c-0.3,3.5-1,6.9-2.2,10.2c-1.3,3.9-1.4,8-0.3,11.9
	c0.9,3.1,1.5,6.3,1.7,9.6c0.6,6.3,2.1,12.4,4.5,18.2c4.1,9.7,9.5,22.9,9.7,25.5c0.2,1.4,0.5,3.6,0.9,5.8l-0.2,0.1l-9.6,21.7
	c0,0-2.7,6-8,6c-2,0-3.7,1.6-3.7,3.6c0,0.1,0,0.3,0,0.4c-0.1,0.6,0,1.2,0.2,1.8l0,0v0.1c0,0.1,0.1,0.2,0.1,0.3l0.1,0.2
	c0,0.1,0.1,0.2,0.2,0.3l0.1,0.2l0.2,0.3l0.2,0.2l0.3,0.3l0.2,0.2l0.3,0.2l0.2,0.2l0.3,0.2l0.3,0.2l0.4,0.2l0.3,0.2l0.4,0.2l0.3,0.1
	l0.5,0.2l0.4,0.1l0.5,0.1l0.4,0.1l0.6,0.1l0.5,0.1l0.7,0.1l0.5,0.1h0.7h0.5h1.4h1h0.5c0.5,0,1,0,1.6-0.1c17.4-1.7,30.3-15,30.3-15
	v-0.2v-0.2l0,0v-0.2l0.1-0.1c0,0-1.1-17.3-7.5-21.2c-0.6-3.2-1-6.5-1-9.8c0-12,3.6-24.1-6.2-43.8c0,0-0.5-5.2,3.1-12.9
	c2.1-4.1,4.4-8.2,6.9-12.1l0.4,0l-0.7,0.9c0,0,11.6-0.9,12.5-8.6c0.1-0.6,0.2-1.3,0.5-1.9c2.7-7.8,15.6-18.8,21.4-19.6
	c6.2-0.9,18.7,13.8,23.6,24.1c0.3,0.6,0.6,1.2,0.9,1.7c4.8,8.4,10.7,6.5,10.7,6.5c-0.2-0.2-0.4-0.5-0.6-0.7c0.2,0,0.4-0.1,0.6-0.1
	c-0.5-0.6-1-1.3-1.5-2c4.5,4.8,9.2,9.3,11.2,11.8c4.5,5.6,2.2,9.5,2.2,11.2c0,7.8-10.2,30.5-7.6,43c1.3,6.2-0.2,13.4-2.1,19.1h-0.4
	c-7.6,2.9-8.5,13.1-8.4,18.3c0,0.2,0,0.3,0,0.5l0,0c0,0.3,0,0.5,0,0.8v0.2c0,0.2,0,0.4,0,0.6v0.1c0,0.2,0,0.4,0,0.6l0,0
	c0,0.2,0,0.3,0,0.5v0.1v0.3v0.1v0.2v0.1c0,0,21.4,9.5,39.6,12c0.6,0.1,1.2,0.2,1.8,0.2h0.5l1.2,0.1h1.6h0.5c0.3,0,0.7,0,1-0.1h0.3
	c0.4-0.1,0.8-0.1,1.2-0.2l0.2-0.1c0.3-0.1,0.5-0.1,0.8-0.2l0.3-0.1l0.6-0.2l0.3-0.1c0.2-0.1,0.3-0.2,0.5-0.3l0.3-0.2
	c0.2-0.1,0.4-0.3,0.6-0.4l0,0c0.2-0.2,0.4-0.3,0.5-0.5l0.1-0.2c0.1-0.1,0.2-0.2,0.3-0.4l0.1-0.2c0.1-0.1,0.1-0.3,0.2-0.4l0.1-0.2
	c0.1-0.1,0.1-0.3,0.1-0.4v-0.2c0-0.2,0.1-0.4,0.1-0.6c0,0,0-0.1,0-0.1c0-0.2,0-0.3,0-0.5c0-0.1,0-0.1,0-0.2l0,0
	c0.3-2.6-1.8-5.3-3.9-4.9c-4.5,0.9-10.2-4.3-10.2-4.3L693,590.2c-0.2-4.7,0.3-10.6,3.3-15.4c5.8-9.5,12.9-29.7,12.9-29.7
	s-0.9-12.5,2.7-18.5s0-15.5,0-15.5l-10.9-21c1.2,0,2,0,2,0l-0.4-0.9h0.4c0,0-13.3-29.6-18.7-33.1c-3.8-2.5-9.2-16.2-12-24
	c1.1-0.6,1.7-1,1.7-1s3.1-37.4,3.1-61s16-33.1,16-33.1l37.1-21.9c9.8-3.9,11.1-13.8,11.1-13.8l-0.1-0.3c0.1-0.4,0.1-0.6,0.1-0.6
	l-0.1-0.3c0.1-0.4,0.1-0.6,0.1-0.6l-17.8-45.6c0,0.1-0.1,0.3-0.2,0.4c-1.3-7.9-5.2-20.1-17.2-21c-17.8-1.3-24,7.7-20.5,8.6
	s18.7,6.9,18.7,6.9l6,9.7c-0.4-0.1-0.6-0.2-0.6-0.2c0.3,0.1,0.6,0.3,0.9,0.6l0.4,0.6c-0.8-0.2-1.3-0.4-1.3-0.4
	c0.1,0,0.2,0.1,0.3,0.2c0.1,0,0.2,0.1,0.2,0.2c0.1,0.1,0.2,0.1,0.2,0.2c0.1,0.1,0.2,0.2,0.2,0.2c0.1,0.1,0.2,0.2,0.2,0.3l0.1,0.2
	c-0.5-0.1-0.9-0.3-1.4-0.4c4.7,1.5,6.6,29.8,7,37l-23,10.3c0,0-23.1,0-32.9,5.6c-8.6,4.9-12.7,0.9-13.6-0.2c0.6,0.8,1.1,1.5,1.6,2.2
	l0,0l-0.2-0.2l-0.2-0.2l-0.2-0.1l-0.2-0.2l-0.1-0.1c-2-3.8-3.4-7.9-3.9-12.2c2.2-5.3,2.1-11.2-0.3-16.4c0.4,0.3,0.8,0.5,1.2,0.6
	c-1-1.9-1.7-3.9-2-6c-0.2-2.4,0.5-4.9-0.5-7c-0.1-0.2-0.2-0.4-0.4-0.6c0-0.1,0-0.1-0.1-0.2c-1-2.2-3.5-3.4-5-5.3
	c-1-1.3-1.6-2.8-2.5-4.2c-2.5-3.2-6.8-4.4-10.6-2.9c-1.5,0.6-2.8,1.6-4.4,1.6c-0.8,0-1.6-0.2-2.4-0.4c-4.9-1-10-0.1-14.2,2.7
	c-4.1,2.7-7.3,6.5-9.3,11c-1.1,2.2-1.8,4.6-2.1,7c-0.1,2.6-0.1,5.1,0.1,7.6c0.1,4.2-0.5,8.6,1.3,12.4c0.1,0.2,0.2,0.5,0.4,0.7
	c0,0.1,0,0.1,0.1,0.2c1.7,3.6,5.3,6,8.7,8.3l4.4,2.9l0.5,0.3c-1.3-0.1-2.5-0.2-3.8-0.1c-6.7,0.4-20-6-20-6L569,295.9l6.8-27.8
	l-0.3,0.2l0.3-1l-0.3,0.2l0.3-1c-0.1,0.1-0.2,0.2-0.4,0.3l7-11.5c0,0,15.1-6,18.7-6.9s-2.7-9.9-20.5-8.6c-13.1,1-16.6,15.4-17.5,23
	c-0.8-0.9-1.2-1.5-1.2-1.5l-12.5,29.5c-1.3,2.8-2,5.8-2,8.9C547.5,299.9,547.5,300.2,547.5,300.5z M648.4,315.5l0.4,0.5l0,0
	L648.4,315.5z M612.7,315.6c1-0.3,1.9-0.9,2.6-1.7c1.1,0.4,2.3,0.8,3.4,1c-0.3,1.1-0.8,2.1-1.3,3.1c-0.2-0.7-0.2-1.1-0.2-1.1
	C615.7,316.4,614.2,315.9,612.7,315.6L612.7,315.6z M605.2,502.7c1-1.6,2-3.2,3-4.7C607.3,499.6,606.2,501.3,605.2,502.7z"/>
<path class="st10" d="M696.1,484.8l12.8,25.5c0,0,3.4,9.3,0,15.3s-2.5,18.3-2.5,18.3s-6.8,20-12.3,29.3s-2.1,23-2.1,23l-22.1,2.5
	c0,0,8.5-16.6,6-28.9s7.2-34.8,7.2-42.5c0-1.7,2.1-5.5-2.1-11s-20.4-19.5-20-27.6L696.1,484.8z"/>
<path class="st10" d="M583.4,478.8c0,0-8.2,11.3-9.1,22.3c-0.3,3.4-1,6.8-2,10.1c-1.3,3.8-1.4,7.9-0.3,11.8c0.8,3.1,1.4,6.3,1.7,9.5
	c0.5,6.2,2,12.3,4.3,18c3.9,9.6,9,22.6,9.3,25.3c0.4,4.2,2.5,14.5,2.5,14.5l17,6.4c0,0-5.1-12.3-5.1-24.2s3.4-23.8-6-43.4
	c0,0-0.4-5.1,3-12.8s16.6-27.6,16.6-27.6L583.4,478.8z"/>
<path class="st11" d="M610.9,494c1.4,1.5-5.8,11.2-5.8,11.2s11-0.8,11.9-8.5c0.1-0.6,0.2-1.3,0.4-1.9c2.6-7.7,14.9-18.6,20.4-19.4
	c6-0.8,17.8,13.6,22.5,23.8c0.3,0.6,0.5,1.1,0.8,1.6c4.6,8.3,10.2,6.4,10.2,6.4c-3-3.7-3.6-6.6-2.7-9c3.7-9.2,31.6-8.9,31.6-8.9
	s-12.8-29.3-17.8-32.7s-13.2-28.9-13.2-28.9s-60.8-6.8-61.2-3.8s-12.3,26.4-16.6,30.2s-12.7,32.3-12.7,32.3
	C593.2,482.2,609.2,492.6,610.9,494L610.9,494z"/>
<path class="st12" d="M610.9,493.1c1.4,1.5-5.8,11.2-5.8,11.2s11-0.8,11.9-8.5c0.1-0.6,0.2-1.3,0.4-1.9c2.6-7.7,14.9-18.6,20.4-19.4
	c6-0.8,17.8,13.6,22.5,23.8c0.3,0.6,0.5,1.1,0.8,1.6c4.6,8.3,10.2,6.4,10.2,6.4c-3-3.7-3.6-6.6-2.7-9c3.7-9.2,31.6-8.9,31.6-8.9
	s-12.8-29.3-17.8-32.7s-13.2-28.9-13.2-28.9s-60.8-6.8-61.2-3.8s-12.3,26.4-16.6,30.2s-12.8,32.3-12.8,32.3
	c14.5-4.2,30.4,6.2,32.1,7.4L610.9,493.1z"/>
<path class="st11" d="M690.8,588.3l11.7,19.8c0,0,5.5,5.1,9.8,4.2s8.5,11.9-8.9,9.3s-37.8-11.9-37.8-11.9s-1.9-17.2,7.9-21
	L690.8,588.3z"/>
<path class="st11" d="M587.9,581.5l-9.1,21.5c0,0-2.5,6-7.7,6s-6.8,10.6,9.8,8.9s28.9-14.9,28.9-14.9s-1.3-20.4-8.9-21.7
	C596.6,580.5,592.2,580.5,587.9,581.5z"/>
<path class="st13" d="M690.8,589.1l11.7,19.8c0,0,5.5,5.1,9.8,4.2s8.5,11.9-8.9,9.3s-37.8-11.9-37.8-11.9s-1.9-17.2,7.9-21
	L690.8,589.1z"/>
<path class="st13" d="M587.9,582.3l-9.1,21.5c0,0-2.5,6-7.7,6s-6.8,10.6,9.8,8.9s28.9-14.9,28.9-14.9s-1.3-20.4-8.9-21.7
	C596.6,581.4,592.2,581.4,587.9,582.3z"/>
<g class="st7">
	<path d="M610.2,423.2c-0.4,3-12.3,26.4-16.6,30.2c-3.9,3.5-11.4,27.8-12.6,31.8c-0.8,0.2-1.5,0.3-2.3,0.5c0,0,8.5-28.5,12.8-32.3
		s16.2-27.2,16.6-30.2c0.1-0.6,2.6-0.8,6.5-0.7C611.9,422.5,610.3,422.7,610.2,423.2z"/>
	<path d="M640,474.6c6-0.8,17.8,13.6,22.5,23.8c0.3,0.6,0.5,1.1,0.8,1.6c2.6,4.8,5.6,6.2,7.7,6.5c-1.4,0.2-6,0.5-9.8-6.5
		c-0.3-0.5-0.5-1-0.8-1.6c-4.3-9.4-14.7-22.3-20.9-23.7L640,474.6z"/>
	<path d="M610.9,493.1L610.9,493.1c-1.4-1.1-12.1-8.1-23.7-8.5c12.5-0.4,24.3,7.3,25.8,8.4l0.1,0.1c1.2,1.3-4.2,9-5.5,10.8
		c-0.8,0.2-1.6,0.3-2.4,0.4C605.1,504.3,612.3,494.7,610.9,493.1z"/>
</g>
<path class="st10" d="M720.3,262.9c0,0,0-25.9-17-27.2s-23,7.6-19.5,8.5s17.8,6.8,17.8,6.8l9.3,15.7L720.3,262.9z"/>
<path class="st10" d="M566.4,268.8c0,0,0-25.9,17-27.2s23,7.6,19.5,8.5s-17.8,6.8-17.8,6.8l-9.3,15.7L566.4,268.8z"/>
<path class="st10" d="M643.4,295.6c0,0-1.3,17,9.3,26.8s-24.7,22.1-24.7,22.1l-15.7-18.7c0,0,12.8-7.6,6-20.8L643.4,295.6z"/>
<path class="st11" d="M646.8,315.6c0,0,3.8,6,13.2,0.4s31.5-5.6,31.5-5.6l22.1-10.2c0,0-1.7-36.6-6.8-38.3c0,0,10.2,4.2,13.2-4.2
	l17,45.1c0,0-1.3,9.8-10.6,13.6L691,338.1c0,0-15.3,9.4-15.3,32.7s-3,60.4-3,60.4s-49.3,29.8-69.3-5.1c0,0,8.1-41.2,2.5-51.4
	c0,0-1.7-26.8-15.3-31.9l-35.3-32.3c0,0-6.8-4.2-1.7-16.6l11.9-29.3c0,0,7.2,10.2,13.2,5.1l-6.8,28.9l13.6,12.8c0,0,12.8,6.4,19.1,6
	s13.6,2.5,13.6,2.5s3,17,16.6,15.3C634.9,335.2,660.8,333.9,646.8,315.6z"/>
<path class="st11" d="M646.8,313.9c0,0,3.8,6,13.2,0.4s31.5-5.5,31.5-5.5l22.1-10.2c0,0-1.7-36.6-6.8-38.3c0,0,10.2,4.2,13.2-4.2
	l17,45.1c0,0-1.3,9.8-10.6,13.6L691,336.5c0,0-15.3,9.4-15.3,32.7s-3,60.4-3,60.4s-49.3,29.8-69.3-5.1c0,0,8.1-41.2,2.5-51.4
	c0,0-1.7-26.8-15.3-31.9l-35.3-32.3c0,0-6.8-4.2-1.7-16.6l11.9-29.3c0,0,7.2,10.2,13.2,5.1l-6.8,28.9l13.6,12.8c0,0,12.8,6.4,19.1,6
	s13.6,2.5,13.6,2.5s3,17,16.6,15.3C634.9,333.5,660.8,332.2,646.8,313.9z"/>
<path class="st14" d="M646.8,314.8l0.2,0.2L646.8,314.8z"/>
<path class="st12" d="M555.4,309.7l35.3,32.3c13.6,5.1,15.3,31.9,15.3,31.9c5.5,10.2-2.5,51.4-2.5,51.4c20,34.9,69.3,5.1,69.3,5.1
	s0.1-1.2,0.3-3.4c0.1-1.9,0.3-4.5,0.5-7.6c0.3-4,0.6-8.8,0.9-14.1c0.7-11.5,1.3-24.8,1.3-35.4c0-23.4,15.3-32.7,15.3-32.7l26.5-16.3
	l8.8-5.4c9.3-3.8,10.6-13.6,10.6-13.6l-17-45.1c-2.8,7.9-11.9,4.8-13,4.3c5,2.3,6.7,38.2,6.7,38.2l-22.1,10.2c0,0-22.1,0-31.5,5.5
	c-8,4.7-11.9,1.1-12.9-0.1c13.4,18-12.2,19.2-12.2,19.2c-13.6,1.7-16.6-15.3-16.6-15.3s-7.2-3-13.6-2.5s-19.1-6-19.1-6L572,297.7
	l6.8-28.9c-6,5.1-13.2-5.1-13.2-5.1L553.7,293C548.6,305.4,555.4,309.7,555.4,309.7z"/>
<path class="st11" d="M643.4,297.3c-0.1,2.7,0,5.4,0.4,8c-3.8,9.5-14,14.8-24,12.5c1-3.8,0.4-7.8-1.5-11.2L643.4,297.3z"/>
<circle class="st10" cx="624.5" cy="295.8" r="20.8"/>
<path class="st11" d="M624.8,284c0.2,2.1,0.3,4.4-0.6,6.2c-0.5,0.9-1.2,1.8-2,2.6l-4.4,4.5c-1.4,1.2-2.4,2.7-3.1,4.4
	c-1.3,4.2,2.5,8.4,2.3,12.8c-1.4,2.1-4,3.1-6.4,2.4c-1-0.4-1.9-0.9-2.7-1.5l-4.3-2.9c-3.2-2.2-6.7-4.6-8.3-8.2
	c-1.7-3.8-1.1-8.1-1.2-12.3c-0.2-2.5-0.2-5-0.1-7.6c0.3-2.4,1-4.8,2-6.9c1.9-4.4,5-8.1,8.9-10.8c4-2.7,8.9-3.6,13.6-2.6
	c0.7,0.2,1.5,0.4,2.3,0.4c1.5,0,2.8-1,4.2-1.6c3.6-1.4,7.8-0.2,10.1,2.9c0.9,1.3,1.5,2.9,2.4,4.1c1.4,1.9,3.8,3.1,4.7,5.2
	s0.3,4.6,0.5,6.9c0.3,2.1,0.9,4.1,1.9,6c-2.4-0.8-3.5-3.4-5-5.4c-2.4-3-5.9-4.8-9.8-4.9c-1.3-0.1-3.7-0.2-4.7,0.8
	C623.8,279.7,624.7,282.5,624.8,284z"/>
<path class="st15" d="M624.4,283.1c0.2,2.1,0.3,4.4-0.6,6.2c-0.5,0.9-1.2,1.8-2,2.6l-4.4,4.5c-1.4,1.2-2.4,2.7-3.1,4.4
	c-1.3,4.2,2.5,8.4,2.3,12.8c-1.4,2.1-4,3.1-6.4,2.4c-1-0.4-1.9-0.9-2.7-1.5l-4.2-2.9c-3.2-2.2-6.7-4.6-8.3-8.2
	c-1.7-3.8-1.1-8.1-1.2-12.3c-0.2-2.5-0.2-5-0.1-7.6c0.3-2.4,1-4.8,2-6.9c1.9-4.4,5-8.1,8.9-10.8c4-2.7,8.9-3.6,13.6-2.6
	c0.7,0.2,1.5,0.4,2.3,0.4c1.5,0,2.8-1,4.2-1.6c3.6-1.4,7.8-0.2,10.1,2.9c0.9,1.3,1.5,2.9,2.4,4.1c1.4,1.9,3.8,3.1,4.7,5.2
	s0.3,4.6,0.5,6.9c0.3,2.1,0.9,4.1,1.9,6c-2.4-0.8-3.5-3.4-5-5.4c-2.4-3-5.9-4.8-9.8-4.9c-1.3-0.1-3.7-0.2-4.7,0.8
	C623.4,278.9,624.2,281.6,624.4,283.1z"/>
<g class="st7">
	<path d="M647,315c-0.1-0.1-0.2-0.2-0.2-0.2L647,315z"/>
	<path d="M575,270.3c1.4,0,2.8-0.5,3.8-1.4l-0.4,1.7C577.2,270.8,576,270.7,575,270.3z"/>
	<path d="M650.3,317.2c10.7,16.4-13.3,17.5-13.3,17.5c-1.8,0.3-3.7,0.1-5.5-0.4c1.1,0.1,2.2,0.1,3.3,0c0,0,25.7-1.3,12.1-19.3
		C647.8,316.1,649,316.8,650.3,317.2z"/>
	<path d="M606.8,316.9c-1.7,0-3.4-0.2-5.1-0.6c1,0.2,2,0.2,3,0.2c2.6-0.1,5.3,0.2,7.9,0.8C610.7,316.9,608.7,316.8,606.8,316.9z"/>
	<path d="M553.7,293.1l11.9-29.3c0.5,0.7,1,1.3,1.5,1.9l-11.3,27.8c-5.1,12.3,1.7,16.6,1.7,16.6l35.3,32.3
		c13.6,5.1,15.3,31.9,15.3,31.9c5.5,10.2-2.5,51.4-2.5,51.4c5.4,9.4,12.8,14,20.9,15.9c-8.9-1.5-17.2-6.2-23-16.4
		c0,0,8.1-41.2,2.5-51.4c0,0-1.7-26.8-15.3-31.9l-35.3-32.3C555.4,309.7,548.6,305.4,553.7,293.1z"/>
	<path d="M706.7,261.2c0.9,0.3,1.8,0.6,2.7,0.8c4.7,4.1,6.2,37.9,6.2,37.9l-22.1,10.2c0,0-22.1,0-31.5,5.5c-4.6,2.7-7.8,2.7-10,1.9
		c2,0.1,4.6-0.4,7.8-2.3c9.3-5.5,31.5-5.5,31.5-5.5l22.1-10.2C713.5,299.5,711.8,262.9,706.7,261.2z"/>
	<path d="M710.4,262.1c3.2,0.4,7.7,0,9.5-5.2l1,2.6C718.1,263.6,713,262.8,710.4,262.1z"/>
</g>
<path class="st11" d="M674.4,405.4c0.7-11.5,1.3-24.8,1.3-35.4c0-23.4,15.3-32.7,15.3-32.7l26.5-16.3c-15.4,4-35.9,10.9-37.7,19
	c-3,13.2-8.5,14.5-6.4,37C674.2,386.4,674.6,395.9,674.4,405.4z"/>
<path class="st11" d="M670.4,437.8c0,0-3.8,11.9,6.8,19.5"/>
<path class="st11" d="M610.9,437.8c0,0-1.3,8.9-6.4,12.3"/>
<path class="st11" d="M665.5,608.9c0,0,20.4,9.3,37.8,11.9c8.8,1.3,12.1-1.3,12.6-4.2c0.6,3.3-2,7.4-12.6,5.8
	c-17.4-2.5-37.8-11.9-37.8-11.9c-0.1-1.4-0.2-2.8-0.1-4.2C665.4,607.9,665.5,608.9,665.5,608.9z"/>
<path class="st11" d="M580.5,617.8c16.6-1.7,28.9-14.9,28.9-14.9s-0.6-10.1-3.7-16.5c3.4,6.3,4.1,17.3,4.1,17.3
	s-12.3,13.2-28.9,14.9c-8.5,0.9-12.2-1.5-13.1-4C569.2,616.9,573,618.6,580.5,617.8z"/>
<linearGradient id="SVGID_3_" gradientUnits="userSpaceOnUse" x1="1050.3" y1="527.9755" x2="1050.3" y2="602.9755" gradientTransform="matrix(-1 0 0 -1 1688.2 747.45)">
	<stop  offset="0" style="stop-color:#808080;stop-opacity:0.25"/>
	<stop  offset="0.54" style="stop-color:#808080;stop-opacity:0.12"/>
	<stop  offset="1" style="stop-color:#808080;stop-opacity:0.1"/>
</linearGradient>
<path class="st16" d="M600.4,182c0,20.7,16.8,37.5,37.5,37.5c20.7,0,37.5-16.8,37.5-37.5c0-20.7-16.8-37.5-37.5-37.5
	c-11.6,0-22.6,5.4-29.7,14.6C603.1,165.6,600.4,173.7,600.4,182z"/>
<path class="st5" d="M601.8,182c0,20,16.1,36.2,36.1,36.2c20,0,36.2-16.1,36.2-36.1c0-20-16.1-36.2-36.1-36.2
	c-11.2,0-21.8,5.2-28.7,14.1C604.4,166.3,601.8,174,601.8,182z"/>
<line class="st17" x1="617.7" y1="164.2" x2="617.7" y2="178.2"/>
<line class="st17" x1="644.4" y1="177" x2="629.8" y2="186.6"/>
<line class="st17" x1="629.8" y1="155.5" x2="646.9" y2="162.7"/>
<line class="st17" x1="658.5" y1="179.5" x2="657.5" y2="201.3"/>
<line class="st17" x1="646.9" y1="207.8" x2="627.6" y2="198.2"/>
<line class="st17" x1="617.7" y1="199.7" x2="617.7" y2="211.9"/>
<line class="st17" x1="610.5" y1="190.4" x2="602.1" y2="186.6"/>
<line class="st17" x1="657.5" y1="161.4" x2="656.9" y2="151.2"/>
<line class="st17" x1="663.1" y1="173.2" x2="673.6" y2="176.2"/>
<polygon class="st12" points="665.9,173.2 657.8,159.2 644.5,161.4 644.5,177 658.8,184.5 "/>
<path class="st12" d="M609.3,159.9l8.4,4.3c2.8-3.7,14.3-8.1,14.3-8.1l-1.2-9.6C622.2,148.3,614.6,153,609.3,159.9z"/>
<polygon class="st12" points="632,185.1 617.3,178.2 609.2,189.8 617.7,203.1 632,201 "/>
<path class="st12" d="M644.4,205.9v11.5c9.5-1.7,17.9-7.2,23.3-15.1l-10.2-4.2L644.4,205.9z"/>
<linearGradient id="SVGID_4_" gradientUnits="userSpaceOnUse" x1="1548.24" y1="268.4308" x2="1548.24" y2="331.3508" gradientTransform="matrix(-1 0 0 -1 1688.2 747.45)">
	<stop  offset="0" style="stop-color:#808080;stop-opacity:0.25"/>
	<stop  offset="0.54" style="stop-color:#808080;stop-opacity:0.12"/>
	<stop  offset="1" style="stop-color:#808080;stop-opacity:0.1"/>
</linearGradient>
<path class="st18" d="M108.5,447.6c0,17.4,14.1,31.5,31.5,31.5s31.5-14.1,31.5-31.5s-14.1-31.5-31.5-31.5c-9.8,0-19,4.5-24.9,12.3
	C110.8,433.9,108.5,440.6,108.5,447.6z"/>
<path class="st5" d="M109.7,447.6c0,16.7,13.6,30.3,30.3,30.3c16.7,0,30.3-13.6,30.3-30.3c0-16.7-13.6-30.3-30.3-30.3
	c-9.4,0-18.3,4.4-24,11.8C111.9,434.4,109.7,440.9,109.7,447.6z"/>
<line class="st17" x1="123" y1="432.7" x2="123" y2="444.4"/>
<line class="st17" x1="145.4" y1="443.4" x2="133.2" y2="451.5"/>
<line class="st17" x1="133.2" y1="425.4" x2="147.5" y2="431.4"/>
<line class="st17" x1="157.2" y1="445.5" x2="156.4" y2="463.8"/>
<line class="st17" x1="147.5" y1="469.2" x2="131.3" y2="461.1"/>
<line class="st17" x1="123" y1="462.5" x2="123" y2="472.7"/>
<line class="st17" x1="117" y1="454.6" x2="109.9" y2="451.5"/>
<line class="st17" x1="156.4" y1="430.3" x2="155.9" y2="421.8"/>
<line class="st17" x1="161.1" y1="440.2" x2="169.9" y2="442.8"/>
<polygon class="st0" points="163.5,440.2 156.7,428.5 145.4,430.3 145.4,443.4 157.4,449.6 "/>
<path class="st0" d="M115.9,429.1l7,3.6c2.4-3.1,12-6.8,12-6.8l-1-8C126.8,419.3,120.4,423.3,115.9,429.1z"/>
<polygon class="st0" points="135,450.2 122.7,444.4 115.9,454.1 123,465.3 135,463.5 "/>
<path class="st0" d="M145.4,467.7v9.7c7.9-1.5,15-6,19.5-12.7l-8.6-3.5L145.4,467.7z"/>
<linearGradient id="SVGID_5_" gradientUnits="userSpaceOnUse" x1="1571.34" y1="230.6208" x2="1571.34" y2="293.5408" gradientTransform="matrix(-1 0 0 -1 1688.2 747.45)">
	<stop  offset="0" style="stop-color:#808080;stop-opacity:0.25"/>
	<stop  offset="0.54" style="stop-color:#808080;stop-opacity:0.12"/>
	<stop  offset="1" style="stop-color:#808080;stop-opacity:0.1"/>
</linearGradient>
<path class="st19" d="M85.4,485.4c0,17.4,14.1,31.5,31.5,31.5s31.5-14.1,31.5-31.5s-14.1-31.5-31.5-31.5c-9.8,0-19,4.5-24.9,12.3
	C87.7,471.7,85.4,478.4,85.4,485.4z"/>
<path class="st5" d="M86.6,485.4c0,16.7,13.6,30.3,30.3,30.3s30.3-13.6,30.3-30.3c0-16.7-13.6-30.3-30.3-30.3
	c-9.4,0-18.3,4.4-24,11.8C88.8,472.2,86.6,478.7,86.6,485.4z"/>
<line class="st17" x1="99.9" y1="470.5" x2="99.9" y2="482.2"/>
<line class="st17" x1="122.3" y1="481.2" x2="110.1" y2="489.3"/>
<line class="st17" x1="110.1" y1="463.2" x2="124.4" y2="469.2"/>
<line class="st17" x1="134.1" y1="483.3" x2="133.3" y2="501.6"/>
<line class="st17" x1="124.4" y1="507" x2="108.2" y2="499"/>
<line class="st17" x1="99.9" y1="500.3" x2="99.9" y2="510.5"/>
<line class="st17" x1="93.9" y1="492.4" x2="86.8" y2="489.3"/>
<line class="st17" x1="133.3" y1="468.1" x2="132.8" y2="459.6"/>
<line class="st17" x1="138" y1="478.1" x2="146.8" y2="480.6"/>
<polygon class="st0" points="140.4,478.1 133.6,466.3 122.3,468.1 122.3,481.2 134.4,487.5 "/>
<path class="st0" d="M92.9,466.9l7,3.6c2.3-3.1,12-6.8,12-6.8l-1-8C103.7,457.1,97.3,461.1,92.9,466.9z"/>
<polygon class="st0" points="111.9,488 99.6,482.2 92.8,491.9 99.9,503.1 111.9,501.3 "/>
<path class="st0" d="M122.3,505.5v9.7c7.9-1.5,15-6,19.5-12.7l-8.6-3.5L122.3,505.5z"/>
</svg>
